<?xml version="1.0" encoding="utf-8"?>
<!-- Generator: Adobe Illustrator 19.1.0, SVG Export Plug-In . SVG Version: 6.00 Build 0)  -->
<svg version="1.1" id="Layer_1" xmlns="http://www.w3.org/2000/svg" xmlns:xlink="http://www.w3.org/1999/xlink" x="0px" y="0px"
	 viewBox="-226 1277.2 283.5 281.4" style="enable-background:new -226 1277.2 283.5 281.4;" xml:space="preserve">
<metadata><?xpacket begin="﻿" id="W5M0MpCehiHzreSzNTczkc9d"?>
<x:xmpmeta xmlns:x="adobe:ns:meta/" x:xmptk="Adobe XMP Core 5.6-c067 79.157747, 2015/03/30-23:40:42        ">
   <rdf:RDF xmlns:rdf="http://www.w3.org/1999/02/22-rdf-syntax-ns#">
      <rdf:Description rdf:about=""/>
   </rdf:RDF>
</x:xmpmeta>
                                                                                                    
                                                                                                    
                                                                                                    
                                                                                                    
                                                                                                    
                                                                                                    
                                                                                                    
                                                                                                    
                                                                                                    
                                                                                                    
                                                                                                    
                                                                                                    
                                                                                                    
                                                                                                    
                                                                                                    
                                                                                                    
                                                                                                    
                                                                                                    
                                                                                                    
                                                                                                    
                           
<?xpacket end="w"?></metadata>
<style type="text/css">
	.st0{fill:#FFFFFF;}
</style>
<path class="st0" d="M9.1,1277.2h-186.7c-26.7,0-48.4,21.7-48.4,48.4v184.6c0,26.7,21.7,48.4,48.4,48.4H9.1
	c26.7,0,48.4-21.7,48.4-48.4v-184.6C57.5,1298.9,35.8,1277.2,9.1,1277.2z"/>
<path d="M-43.1,1370.7H-118c-14.4,0-26.1,11.7-26.1,26.1v39.1c0,14.4,11.7,26.1,26.1,26.1h24.4l-13,26.1l39.1-26.1h24.4
	c14.4,0,26.1-11.7,26.1-26.1v-39.1C-17,1382.3-28.7,1370.7-43.1,1370.7z M-109.8,1426.1c-5.4,0-9.8-4.4-9.8-9.8s4.4-9.8,9.8-9.8
	s9.8,4.4,9.8,9.8C-100.1,1421.7-104.4,1426.1-109.8,1426.1z M-80.5,1426.1c-5.4,0-9.8-4.4-9.8-9.8s4.4-9.8,9.8-9.8
	c5.4,0,9.8,4.4,9.8,9.8C-70.8,1421.7-75.1,1426.1-80.5,1426.1z M-51.2,1426.1c-5.4,0-9.8-4.4-9.8-9.8s4.4-9.8,9.8-9.8
	c5.4,0,9.8,4.4,9.8,9.8C-41.5,1421.7-45.8,1426.1-51.2,1426.1z"/>
</svg>
