<?xml version="1.0" encoding="utf-8"?>
<!-- Generator: Adobe Illustrator 19.1.0, SVG Export Plug-In . SVG Version: 6.00 Build 0)  -->
<svg version="1.1" id="Layer_1" xmlns="http://www.w3.org/2000/svg" xmlns:xlink="http://www.w3.org/1999/xlink" x="0px" y="0px"
	 viewBox="-226 1277.2 283.5 281.4" style="enable-background:new -226 1277.2 283.5 281.4;" xml:space="preserve">
<metadata><?xpacket begin="﻿" id="W5M0MpCehiHzreSzNTczkc9d"?>
<x:xmpmeta xmlns:x="adobe:ns:meta/" x:xmptk="Adobe XMP Core 5.6-c067 79.157747, 2015/03/30-23:40:42        ">
   <rdf:RDF xmlns:rdf="http://www.w3.org/1999/02/22-rdf-syntax-ns#">
      <rdf:Description rdf:about=""/>
   </rdf:RDF>
</x:xmpmeta>
                                                                                                    
                                                                                                    
                                                                                                    
                                                                                                    
                                                                                                    
                                                                                                    
                                                                                                    
                                                                                                    
                                                                                                    
                                                                                                    
                                                                                                    
                                                                                                    
                                                                                                    
                                                                                                    
                                                                                                    
                                                                                                    
                                                                                                    
                                                                                                    
                                                                                                    
                                                                                                    
                           
<?xpacket end="w"?></metadata>
<style type="text/css">
	.st0{fill:#FFFFFF;}
</style>
<path class="st0" d="M9.1,1277.2h-186.7c-26.7,0-48.4,21.7-48.4,48.4v184.6c0,26.7,21.7,48.4,48.4,48.4H9.1
	c26.7,0,48.4-21.7,48.4-48.4v-184.6C57.5,1298.9,35.8,1277.2,9.1,1277.2z"/>
<path d="M-74.4,1406.1v-0.4c-0.1,0.1-0.2,0.3-0.3,0.4H-74.4z"/>
<g>
	<path d="M-128.4,1364.5c-8.5,0-14.1,5.6-14.1,12.9c0,7.1,5.4,12.9,13.8,12.9h0.2c8.7,0,14.1-5.7,14.1-12.9
		C-114.7,1370.1-119.9,1364.5-128.4,1364.5z"/>
	<path d="M-55,1398.7c-13.2,0-19.1,7.2-22.4,12.3v0.2h-0.2c0-0.1,0.1-0.2,0.2-0.2v-10.6h-24.9c0.3,7,0,74.5,0,74.5h24.9v-41.6
		c0-2.2,0.2-4.4,0.8-6c1.8-4.4,5.9-9.1,12.8-9.1c9,0,12.6,6.8,12.6,16.8v39.8h24.9v-42.7C-26.3,1409.3-38.6,1398.7-55,1398.7z"/>
	<rect x="-141" y="1400.4" width="24.9" height="74.5"/>
</g>
</svg>
