<?xml version="1.0" encoding="utf-8"?>
<!-- Generator: Adobe Illustrator 20.0.0, SVG Export Plug-In . SVG Version: 6.00 Build 0)  -->
<svg version="1.1" id="Layer_1" xmlns="http://www.w3.org/2000/svg" xmlns:xlink="http://www.w3.org/1999/xlink" x="0px" y="0px"
	 viewBox="0 0 154.6 38.6" style="enable-background:new 0 0 154.6 38.6;" xml:space="preserve">
<style type="text/css">
	.st0{fill:#FFFFFF;}
	.st1{fill:none;}
	.st2{fill:#4D4D4D;}
	.st3{font-family:'Gotham-Bold';}
	.st4{font-size:10px;}
	.st5{fill:#9C9C9B;}
</style>
<path class="st0" d="M145.5,38.6H9.1c-5,0-9.1-4.1-9.1-9.1L0,9.1C0,4.1,4.1,0,9.1,0l136.4,0c5,0,9.1,4.1,9.1,9.1v20.4
	C154.6,34.6,150.5,38.6,145.5,38.6z"/>
<rect x="52.1" y="10.9" class="st1" width="94.5" height="21.7"/>
<text transform="matrix(1 0 0 1 52.0514 18.2255)"><tspan x="0" y="0" class="st2 st3 st4">ADD CASE STUDY</tspan><tspan x="0" y="10" class="st2 st3 st4">TO BASKET</tspan></text>
<g>
	<path class="st2" d="M39.2,15.8h-6.1l-5.5-8.9c0.2-0.3,0.3-0.6,0.3-0.9c0-0.9-0.7-1.7-1.6-1.7c-0.8,0-1.5,0.6-1.6,1.5
		C24.5,5,23.8,4.4,23,4.4c-0.9,0-1.6,0.8-1.6,1.7c0,0.3,0.1,0.6,0.3,0.9l-5.5,8.9H9.9c-1.1,0-2,0.9-2,2c0,1.1,0.9,2,2,2h0.1l1.3,9.9
		c0.4,1.8,1.8,3.1,3.5,3.1h8.6h2.4h8.5c1.7,0,3.1-1.2,3.5-3l1.3-10h0.1c1.1,0,2-0.9,2-2C41.2,16.7,40.3,15.8,39.2,15.8z M17.8,15.8
		l5-8.1c0.1,0,0.1,0,0.2,0c0.8,0,1.5-0.6,1.6-1.4c0.1,0.8,0.8,1.5,1.6,1.5c0.1,0,0.1,0,0.2,0l5,8.1H17.8z M17.8,28.8
		c0,0.7-0.3,1.4-1,1.4s-1-0.6-1-1.4v-6.7c0-0.7,0.3-1.4,1-1.4s1,0.6,1,1.4V28.8z M22.8,28.8c0,0.7-0.3,1.4-1,1.4s-1-0.6-1-1.4v-6.7
		c0-0.7,0.3-1.4,1-1.4s1,0.6,1,1.4V28.8z M27.8,28.8c0,0.7-0.3,1.4-1,1.4s-1-0.6-1-1.4v-6.7c0-0.7,0.3-1.4,1-1.4s1,0.6,1,1.4V28.8z
		 M32.8,28.8c0,0.7-0.3,1.4-1,1.4s-1-0.6-1-1.4v-6.7c0-0.7,0.3-1.4,1-1.4s1,0.6,1,1.4V28.8z"/>
	<g>
		<ellipse class="st5" cx="38.8" cy="25.7" rx="3.7" ry="3.8"/>
		<path class="st0" d="M38.8,28.7L38.8,28.7c-0.3,0-0.5-0.2-0.5-0.4v-5c0-0.2,0.2-0.4,0.4-0.4h0.1c0.2,0,0.4,0.2,0.4,0.4v5
			C39.3,28.5,39.1,28.7,38.8,28.7z"/>
		<path class="st0" d="M41.6,25.7L41.6,25.7c0,0.3-0.2,0.5-0.4,0.5h-4.8c-0.2,0-0.4-0.2-0.4-0.4v-0.1c0-0.2,0.2-0.4,0.4-0.4h4.8
			C41.4,25.3,41.6,25.5,41.6,25.7z"/>
	</g>
</g>
</svg>
