<svg id="Layer_1" data-name="Layer 1" xmlns="http://www.w3.org/2000/svg" viewBox="0 0 154 40"><defs><style>.cls-1{fill:#9c9c9b;}.cls-2{font-size:10.36px;font-family:Gotham-Bold, Gotham;font-weight:700;}.cls-2,.cls-6{fill:#fff;}.cls-2,.cls-4{letter-spacing:-0.01em;}.cls-3{letter-spacing:-0.03em;}.cls-5{letter-spacing:-0.01em;}.cls-7{fill:#4d4d4d;}</style></defs><title>add_to_basket_grey</title><rect class="cls-1" x="0.17" width="153.83" height="40" rx="9.1" ry="9.1"/><text class="cls-2" transform="matrix(0.96, 0, 0, 1, 49.97, 19.49)">ADD ARTICLE<tspan class="cls-3"><tspan x="0" y="12.43">T</tspan><tspan class="cls-4" x="6.35" y="12.43">O B</tspan><tspan class="cls-5" x="25.58" y="12.43">A</tspan><tspan class="cls-4" x="33.6" y="12.43">SKET</tspan></tspan></text><path class="cls-6" d="M39.2,16H33.14L27.65,6.81a1.64,1.64,0,0,0,.25-.87,1.62,1.62,0,1,0-3.23-.21,1.66,1.66,0,0,0-1.6-1.49A1.69,1.69,0,0,0,21.44,6a1.45,1.45,0,0,0,.25.82L16.19,16H10c-1.09,0-2,1.35-2,2.52S8.89,21,10,21H10l1.29,10a3.56,3.56,0,0,0,3.53,3H34.29a3.48,3.48,0,0,0,3.53-2.87L39.12,21h.08c1.09,0,2-1.34,2-2.51S40.29,16,39.2,16ZM17.83,16l5-8.34c.07,0,.14.07.21.07a1.64,1.64,0,0,0,1.61-1.47,1.68,1.68,0,0,0,1.6,1.52c.07,0,.14-.11.21-.12l5,8.36ZM18,29.52c0,.77-.28,1.4-1,1.4s-1-.63-1-1.4v-6.9c0-.77.28-1.4,1-1.4s1,.63,1,1.4Zm5,0c0,.77-.28,1.4-1,1.4s-1-.63-1-1.4v-6.9c0-.77.28-1.4,1-1.4s1,.63,1,1.4Zm5,0c0,.77-.28,1.4-1,1.4s-1-.63-1-1.4v-6.9c0-.77.28-1.4,1-1.4s1,.63,1,1.4Zm5,0c0,.77-.28,1.4-1,1.4s-1-.63-1-1.4v-6.9c0-.77.28-1.4,1-1.4s1,.63,1,1.4Z"/><ellipse class="cls-7" cx="38.77" cy="26.4" rx="3.64" ry="3.92"/><rect class="cls-6" x="38.31" y="23.36" width="0.92" height="6.08" rx="0.43" ry="0.43"/><rect class="cls-6" x="38.28" y="23.58" width="0.99" height="5.64" rx="0.43" ry="0.43" transform="translate(12.35 65.15) rotate(-89.96)"/></svg>