<?xml version="1.0" encoding="utf-8"?>
<!-- Generator: Adobe Illustrator 19.1.0, SVG Export Plug-In . SVG Version: 6.00 Build 0)  -->
<svg version="1.1" id="Layer_1" xmlns="http://www.w3.org/2000/svg" xmlns:xlink="http://www.w3.org/1999/xlink" x="0px" y="0px"
	 viewBox="0 1.1 283.5 281.4" style="enable-background:new 0 1.1 283.5 281.4;" xml:space="preserve">
<metadata><?xpacket begin="﻿" id="W5M0MpCehiHzreSzNTczkc9d"?>
<x:xmpmeta xmlns:x="adobe:ns:meta/" x:xmptk="Adobe XMP Core 5.6-c067 79.157747, 2015/03/30-23:40:42        ">
   <rdf:RDF xmlns:rdf="http://www.w3.org/1999/02/22-rdf-syntax-ns#">
      <rdf:Description rdf:about=""/>
   </rdf:RDF>
</x:xmpmeta>
                                                                                                    
                                                                                                    
                                                                                                    
                                                                                                    
                                                                                                    
                                                                                                    
                                                                                                    
                                                                                                    
                                                                                                    
                                                                                                    
                                                                                                    
                                                                                                    
                                                                                                    
                                                                                                    
                                                                                                    
                                                                                                    
                                                                                                    
                                                                                                    
                                                                                                    
                                                                                                    
                           
<?xpacket end="w"?></metadata>
<style type="text/css">
	.st0{fill:#656665;}
	.st1{fill:#FFFFFF;}
</style>
<path class="st0" d="M235.1,1.1H48.4C21.7,1.1,0,22.8,0,49.5v184.6c0,26.7,21.7,48.4,48.4,48.4h186.7c26.7,0,48.4-21.7,48.4-48.4
	V49.5C283.5,22.8,261.8,1.1,235.1,1.1z"/>
<g>
	<path class="st1" d="M170.2,78.5h-56.9c-19.6,0-35.5,15.9-35.5,35.5v56c0,19.6,15.9,35.5,35.5,35.5h56.9
		c19.6,0,35.5-15.9,35.5-35.5v-56C205.6,94.4,189.7,78.5,170.2,78.5z M194.3,170c0,13.3-10.8,24.1-24.1,24.1h-56.9
		c-13.3,0-24.1-10.8-24.1-24.1v-56c0-13.3,10.8-24.1,24.1-24.1h56.9c13.3,0,24.1,10.8,24.1,24.1V170z"/>
	<path class="st1" d="M141.8,108.7c-18.1,0-32.8,14.7-32.8,32.8c0,18.1,14.7,32.8,32.8,32.8s32.8-14.7,32.8-32.8
		C174.6,123.4,159.9,108.7,141.8,108.7z M141.8,162.9c-11.8,0-21.4-9.6-21.4-21.4c0-11.8,9.6-21.4,21.4-21.4
		c11.8,0,21.4,9.6,21.4,21.4C163.3,153.3,153.7,162.9,141.8,162.9z"/>
	<circle class="st1" cx="175.8" cy="107.8" r="7.6"/>
</g>
</svg>
