<svg id="Layer_1" data-name="Layer 1" xmlns="http://www.w3.org/2000/svg" viewBox="0 0 165 21.73"><defs><style>.cls-1{fill:#fff;}</style></defs><title>Portland Lefter</title><path class="cls-1" d="M28.84,20.6a5.72,5.72,0,0,1-5.63-6,5.63,5.63,0,0,1,11.25,0,5.72,5.72,0,0,1-5.61,6M28.76,4.13A10.87,10.87,0,1,0,39.65,15,10.87,10.87,0,0,0,28.76,4.13" transform="translate(0 -4.13)"/><path class="cls-1" d="M5.22,14.15H6.81c1.88,0,3.75,0,3.74-2.55S8.83,8.94,6.8,8.94H5.21ZM0,4.57H8.69C13,4.55,16,6.63,16,11.43s-2.54,7.09-7.08,7.09H5.23v6.91H0Z" transform="translate(0 -4.13)"/><polygon class="cls-1" points="60.58 0.35 60.59 4.95 65.68 4.94 65.7 21.21 70.91 21.21 70.89 4.94 75.98 4.93 75.98 0.33 60.58 0.35"/><polygon class="cls-1" points="79.26 0.32 79.29 21.2 92.33 21.18 92.33 16.6 84.64 16.61 84.62 0.32 79.26 0.32"/><path class="cls-1" d="M104.8,10.88h.05L107,17.53h-4.4ZM102,4.42l-7.8,20.89h5.61l1.4-3.61h7.28l1.33,3.61h5.65l-7.7-20.86Z" transform="translate(0 -4.13)"/><path class="cls-1" d="M145.6,20.66h1.6c3.11,0,5.76-1.78,5.76-5.85,0-3.74-2.37-5.84-5.72-5.84h-1.65ZM140.37,4.37h7.83A10.27,10.27,0,0,1,158.38,14.8a10.27,10.27,0,0,1-10.15,10.44H140.4Z" transform="translate(0 -4.13)"/><path class="cls-1" d="M47.73,14.09V8.89h1.6c2,0,3.75,0,3.75,2.65s-1.86,2.55-3.74,2.55ZM60.09,25.36l-4.8-7.66c2.07-1,3.19-3.07,3.19-6.33,0-4.79-3-6.88-7.29-6.87H42.51l0,20.87h5.21v-6.9h2.93l3.85,6.9Z" transform="translate(0 -4.13)"/><path class="cls-1" d="M136.23,25.25h0ZM131,4.39l0,11.35L124.13,4.4h-6.22l0,20.87h5.21V13l7.37,12.24h5.73l0-20.87Z" transform="translate(0 -4.13)"/><rect class="cls-1" x="160.44" y="16.61" width="4.56" height="4.56"/></svg>