<?xml version="1.0" encoding="utf-8"?>
<!-- Generator: Adobe Illustrator 20.0.0, SVG Export Plug-In . SVG Version: 6.00 Build 0)  -->
<svg version="1.1" id="Layer_1" xmlns="http://www.w3.org/2000/svg" xmlns:xlink="http://www.w3.org/1999/xlink" x="0px" y="0px"
	 viewBox="0 0 30 30" style="enable-background:new 0 0 30 30;" xml:space="preserve">
<style type="text/css">
	.st0{fill:#FFFFFF;}
</style>
<title>X</title>
<path class="st0" d="M6.5,22.2L20.9,7.7c0.3-0.3,0.8-0.3,1.1,0l1.7,1.7c0.3,0.3,0.3,0.8,0,1.1L9.3,25c-0.3,0.3-0.8,0.3-1.1,0
	l-1.7-1.7C6.2,22.9,6.2,22.5,6.5,22.2z"/>
<path class="st0" d="M9.3,7.7l14.4,14.4c0.3,0.3,0.3,0.8,0,1.1L22,25c-0.3,0.3-0.8,0.3-1.1,0L6.5,10.5c-0.3-0.3-0.3-0.8,0-1.1
	l1.7-1.7C8.5,7.4,9,7.4,9.3,7.7z"/>
</svg>
