<?xml version="1.0" encoding="utf-8"?>
<!-- Generator: Adobe Illustrator 19.1.0, SVG Export Plug-In . SVG Version: 6.00 Build 0)  -->
<svg version="1.1" id="Layer_1" xmlns="http://www.w3.org/2000/svg" xmlns:xlink="http://www.w3.org/1999/xlink" x="0px" y="0px"
	 viewBox="-226 1277.2 283.5 281.4" style="enable-background:new -226 1277.2 283.5 281.4;" xml:space="preserve">
<metadata><?xpacket begin="﻿" id="W5M0MpCehiHzreSzNTczkc9d"?>
<x:xmpmeta xmlns:x="adobe:ns:meta/" x:xmptk="Adobe XMP Core 5.6-c067 79.157747, 2015/03/30-23:40:42        ">
   <rdf:RDF xmlns:rdf="http://www.w3.org/1999/02/22-rdf-syntax-ns#">
      <rdf:Description rdf:about=""/>
   </rdf:RDF>
</x:xmpmeta>
                                                                                                    
                                                                                                    
                                                                                                    
                                                                                                    
                                                                                                    
                                                                                                    
                                                                                                    
                                                                                                    
                                                                                                    
                                                                                                    
                                                                                                    
                                                                                                    
                                                                                                    
                                                                                                    
                                                                                                    
                                                                                                    
                                                                                                    
                                                                                                    
                                                                                                    
                                                                                                    
                           
<?xpacket end="w"?></metadata>
<style type="text/css">
	.st0{fill:#FFFFFF;}
</style>
<path class="st0" d="M9.1,1277.2h-186.7c-26.7,0-48.4,21.7-48.4,48.4v184.6c0,26.7,21.7,48.4,48.4,48.4H9.1
	c26.7,0,48.4-21.7,48.4-48.4v-184.6C57.5,1298.9,35.8,1277.2,9.1,1277.2z"/>
<g>
	<path d="M-55.8,1355.8h-56.9c-19.6,0-35.5,15.9-35.5,35.5v56c0,19.6,15.9,35.5,35.5,35.5h56.9c19.6,0,35.5-15.9,35.5-35.5v-56
		C-20.4,1371.7-36.3,1355.8-55.8,1355.8z M-31.7,1447.3c0,13.3-10.8,24.1-24.1,24.1h-56.9c-13.3,0-24.1-10.8-24.1-24.1v-56
		c0-13.3,10.8-24.1,24.1-24.1h56.9c13.3,0,24.1,10.8,24.1,24.1V1447.3z"/>
	<path d="M-84.2,1386c-18.1,0-32.8,14.7-32.8,32.8c0,18.1,14.7,32.8,32.8,32.8s32.8-14.7,32.8-32.8
		C-51.4,1400.7-66.1,1386-84.2,1386z M-84.2,1440.2c-11.8,0-21.4-9.6-21.4-21.4c0-11.8,9.6-21.4,21.4-21.4s21.4,9.6,21.4,21.4
		C-62.7,1430.6-72.3,1440.2-84.2,1440.2z"/>
	<circle cx="-50.2" cy="1385.1" r="7.6"/>
</g>
</svg>
