<?xml version="1.0" encoding="utf-8"?>
<!-- Generator: Adobe Illustrator 19.1.0, SVG Export Plug-In . SVG Version: 6.00 Build 0)  -->
<svg version="1.1" id="Layer_1" xmlns="http://www.w3.org/2000/svg" xmlns:xlink="http://www.w3.org/1999/xlink" x="0px" y="0px"
	 viewBox="-226 1277.2 283.5 281.4" style="enable-background:new -226 1277.2 283.5 281.4;" xml:space="preserve">
<metadata><?xpacket begin="﻿" id="W5M0MpCehiHzreSzNTczkc9d"?>
<x:xmpmeta xmlns:x="adobe:ns:meta/" x:xmptk="Adobe XMP Core 5.6-c067 79.157747, 2015/03/30-23:40:42        ">
   <rdf:RDF xmlns:rdf="http://www.w3.org/1999/02/22-rdf-syntax-ns#">
      <rdf:Description rdf:about=""/>
   </rdf:RDF>
</x:xmpmeta>
                                                                                                    
                                                                                                    
                                                                                                    
                                                                                                    
                                                                                                    
                                                                                                    
                                                                                                    
                                                                                                    
                                                                                                    
                                                                                                    
                                                                                                    
                                                                                                    
                                                                                                    
                                                                                                    
                                                                                                    
                                                                                                    
                                                                                                    
                                                                                                    
                                                                                                    
                                                                                                    
                           
<?xpacket end="w"?></metadata>
<style type="text/css">
	.st0{fill:#FFFFFF;}
</style>
<g>
	<path class="st0" d="M9.1,1277.2h-186.7c-26.7,0-48.4,21.7-48.4,48.4v184.6c0,26.7,21.7,48.4,48.4,48.4H9.1
		c26.7,0,48.4-21.7,48.4-48.4v-184.6C57.5,1298.9,35.8,1277.2,9.1,1277.2z"/>
</g>
<path d="M242.4,1406.1v-0.4c-0.1,0.1-0.2,0.3-0.3,0.4H242.4z"/>
<path d="M-17.2,1373.5c-5.2,3.1-10.9,5.3-16.9,6.5c-4.9-5.2-11.8-8.4-19.5-8.4c-14.7,0-26.7,11.9-26.7,26.7c0,2.1,0.2,4.1,0.7,6.1
	c-22.2-1.1-41.8-11.7-55-27.9c-2.3,3.9-3.6,8.5-3.6,13.4c0,9.3,4.7,17.4,11.9,22.2c-4.4-0.1-8.5-1.3-12.1-3.3c0,0.1,0,0.2,0,0.3
	c0,12.9,9.2,23.7,21.4,26.2c-2.2,0.6-4.6,0.9-7,0.9c-1.7,0-3.4-0.2-5-0.5c3.4,10.6,13.3,18.3,24.9,18.5
	c-9.1,7.2-20.6,11.4-33.1,11.4c-2.2,0-4.3-0.1-6.4-0.4c11.8,7.6,25.8,12,40.9,12c49.1,0,75.9-40.7,75.9-75.9c0-1.2,0-2.3-0.1-3.5
	c5.2-3.8,9.7-8.5,13.3-13.8c-4.8,2.1-9.9,3.6-15.3,4.2C-23.4,1385-19.2,1379.8-17.2,1373.5z"/>
</svg>
