<?xml version="1.0" encoding="utf-8"?>
<!-- Generator: Adobe Illustrator 19.1.0, SVG Export Plug-In . SVG Version: 6.00 Build 0)  -->
<svg version="1.1" id="Layer_1" xmlns="http://www.w3.org/2000/svg" xmlns:xlink="http://www.w3.org/1999/xlink" x="0px" y="0px"
	 viewBox="0 1.1 283.5 281.4" style="enable-background:new 0 1.1 283.5 281.4;" xml:space="preserve">
<metadata><?xpacket begin="﻿" id="W5M0MpCehiHzreSzNTczkc9d"?>
<x:xmpmeta xmlns:x="adobe:ns:meta/" x:xmptk="Adobe XMP Core 5.6-c067 79.157747, 2015/03/30-23:40:42        ">
   <rdf:RDF xmlns:rdf="http://www.w3.org/1999/02/22-rdf-syntax-ns#">
      <rdf:Description rdf:about=""/>
   </rdf:RDF>
</x:xmpmeta>
                                                                                                    
                                                                                                    
                                                                                                    
                                                                                                    
                                                                                                    
                                                                                                    
                                                                                                    
                                                                                                    
                                                                                                    
                                                                                                    
                                                                                                    
                                                                                                    
                                                                                                    
                                                                                                    
                                                                                                    
                                                                                                    
                                                                                                    
                                                                                                    
                                                                                                    
                                                                                                    
                           
<?xpacket end="w"?></metadata>
<style type="text/css">
	.st0{fill:#646464;}
	.st1{fill:#FFFFFF;}
</style>
<path class="st0" d="M235.1,1.1H48.4C21.7,1.1,0,22.8,0,49.5v184.6c0,26.7,21.7,48.4,48.4,48.4h186.7c26.7,0,48.4-21.7,48.4-48.4
	V49.5C283.5,22.8,261.8,1.1,235.1,1.1z"/>
<path class="st1" d="M182.9,94.5H108c-14.4,0-26.1,11.7-26.1,26.1v39.1c0,14.4,11.7,26.1,26.1,26.1h24.4l-13,26.1l39.1-26.1h24.4
	c14.4,0,26.1-11.7,26.1-26.1v-39.1C209,106.2,197.3,94.5,182.9,94.5z M116.2,149.9c-5.4,0-9.8-4.4-9.8-9.8c0-5.4,4.4-9.8,9.8-9.8
	s9.8,4.4,9.8,9.8C125.9,145.5,121.6,149.9,116.2,149.9z M145.5,149.9c-5.4,0-9.8-4.4-9.8-9.8c0-5.4,4.4-9.8,9.8-9.8
	c5.4,0,9.8,4.4,9.8,9.8C155.2,145.5,150.9,149.9,145.5,149.9z M174.8,149.9c-5.4,0-9.8-4.4-9.8-9.8c0-5.4,4.4-9.8,9.8-9.8
	c5.4,0,9.8,4.4,9.8,9.8C184.5,145.5,180.2,149.9,174.8,149.9z"/>
</svg>
