<?xml version="1.0" encoding="utf-8"?>
<!-- Generator: Adobe Illustrator 19.1.0, SVG Export Plug-In . SVG Version: 6.00 Build 0)  -->
<svg version="1.1" id="Layer_1" xmlns="http://www.w3.org/2000/svg" xmlns:xlink="http://www.w3.org/1999/xlink" x="0px" y="0px"
	 viewBox="0 1.1 283.5 281.4" style="enable-background:new 0 1.1 283.5 281.4;" xml:space="preserve">
<metadata><?xpacket begin="﻿" id="W5M0MpCehiHzreSzNTczkc9d"?>
<x:xmpmeta xmlns:x="adobe:ns:meta/" x:xmptk="Adobe XMP Core 5.6-c067 79.157747, 2015/03/30-23:40:42        ">
   <rdf:RDF xmlns:rdf="http://www.w3.org/1999/02/22-rdf-syntax-ns#">
      <rdf:Description rdf:about=""/>
   </rdf:RDF>
</x:xmpmeta>
                                                                                                    
                                                                                                    
                                                                                                    
                                                                                                    
                                                                                                    
                                                                                                    
                                                                                                    
                                                                                                    
                                                                                                    
                                                                                                    
                                                                                                    
                                                                                                    
                                                                                                    
                                                                                                    
                                                                                                    
                                                                                                    
                                                                                                    
                                                                                                    
                                                                                                    
                                                                                                    
                           
<?xpacket end="w"?></metadata>
<style type="text/css">
	.st0{fill:#656665;}
	.st1{fill:#FFFFFF;}
</style>
<path class="st0" d="M235.1,1.1H48.4C21.7,1.1,0,22.8,0,49.5v184.6c0,26.7,21.7,48.4,48.4,48.4h186.7c26.7,0,48.4-21.7,48.4-48.4
	V49.5C283.5,22.8,261.8,1.1,235.1,1.1z"/>
<path d="M151.6,128.8v-0.4c-0.1,0.1-0.2,0.3-0.3,0.4H151.6z"/>
<g>
	<path class="st1" d="M97.6,87.2c-8.5,0-14.1,5.6-14.1,12.9c0,7.1,5.4,12.9,13.8,12.9h0.2c8.7,0,14.1-5.7,14.1-12.9
		C111.3,92.8,106.1,87.2,97.6,87.2z"/>
	<path class="st1" d="M171,121.4c-13.2,0-19.1,7.2-22.4,12.3v0.2h-0.2c0-0.1,0.1-0.2,0.2-0.2v-10.6h-24.9c0.3,7,0,74.5,0,74.5h24.9
		V156c0-2.2,0.2-4.4,0.8-6c1.8-4.4,5.9-9.1,12.8-9.1c9,0,12.6,6.8,12.6,16.8v39.8h24.9v-42.7C199.7,132,187.4,121.4,171,121.4z"/>
	<rect x="85" y="123.1" class="st1" width="24.9" height="74.5"/>
</g>
</svg>
