<svg id="Layer_1" data-name="Layer 1" xmlns="http://www.w3.org/2000/svg" viewBox="0 0 36.27 30.05"><defs><style>.cls-1{fill:#fff;}</style></defs><title>Hambergerrrr</title><path class="cls-1" d="M1.28.12,35,0a1.29,1.29,0,0,1,1.28,1.28v4A1.29,1.29,0,0,1,35,6.53L1.28,6.65A1.29,1.29,0,0,1,0,5.37v-4C.12.58.58.12,1.28.12Z"/><path class="cls-1" d="M1.28,11.7H34.87A1.29,1.29,0,0,1,36.16,13l.12,4.08A1.29,1.29,0,0,1,35,18.35L1.28,18.23A1.29,1.29,0,0,1,0,17V13A1.29,1.29,0,0,1,1.28,11.7Z"/><path class="cls-1" d="M1.28,23.4H34.87a1.29,1.29,0,0,1,1.28,1.28l.12,4.08A1.29,1.29,0,0,1,35,30.05L1.28,29.94A1.29,1.29,0,0,1,0,28.65v-4A1.29,1.29,0,0,1,1.28,23.4Z"/></svg>